STARTFONT 2.1
FONT -Monotype-Arial-Bold-I-Normal--14-140-75-75-P-79-iso8859-2
SIZE 14 75 75
FONTBOUNDINGBOX 19 18 -3 -4

STARTPROPERTIES 24
FOUNDRY "Monotype"
FAMILY_NAME "Arial"
WEIGHT_NAME "Bold"
SLANT "I"
SETWIDTH_NAME "Normal"
ADD_STYLE_NAME ""
PIXEL_SIZE 14
POINT_SIZE 140
RESOLUTION_X 75
RESOLUTION_Y 75
SPACING "P"
AVERAGE_WIDTH 79
CHARSET_REGISTRY "iso8859"
CHARSET_ENCODING "2"
FACE_NAME "Arial BoldItalic ISO Latin2"
_DEC_DEVICE_FONTNAMES "PS=arial-bit-lat2"
COPYRIGHT "Copyright (c) 1994 Monotype Typography Ltd."
CAP_HEIGHT 12
X_HEIGHT 9
WEIGHT 10
QUAD_WIDTH 9
DEFAULT_CHAR 160
FONT_DESCENT 4
FONT_ASCENT 14
ENDPROPERTIES

CHARS 191

STARTCHAR space
ENCODING 32
SWIDTH 278 0
DWIDTH 4 0
BBX 0 0 0 0
BITMAP
ENDCHAR

STARTCHAR exclam
ENCODING 33
SWIDTH 333 0
DWIDTH 5 0
BBX 4 11 1 0
BITMAP
30
30
30
70
60
60
60
40
00
C0
C0
ENDCHAR

STARTCHAR quotedbl
ENCODING 34
SWIDTH 474 0
DWIDTH 7 0
BBX 5 4 2 7
BITMAP
D8
D8
D8
90
ENDCHAR

STARTCHAR numbersign
ENCODING 35
SWIDTH 556 0
DWIDTH 8 0
BBX 10 12 0 -1
BITMAP
1980
1980
1980
7FC0
7FC0
3300
3300
FF80
FF80
6600
6600
6600
ENDCHAR

STARTCHAR dollar
ENCODING 36
SWIDTH 556 0
DWIDTH 8 0
BBX 8 15 1 -2
BITMAP
08
08
1C
3E
6B
68
78
3C
1E
16
D6
F6
7C
10
10
ENDCHAR

STARTCHAR percent
ENCODING 37
SWIDTH 889 0
DWIDTH 13 0
BBX 12 11 1 0
BITMAP
3030
5860
D8C0
D980
D300
6360
06B0
0DB0
19B0
31A0
60C0
ENDCHAR

STARTCHAR ampersand
ENCODING 38
SWIDTH 722 0
DWIDTH 11 0
BBX 9 11 1 0
BITMAP
1E00
3300
3300
1E00
3C00
7800
CC80
C780
C700
7F80
3900
ENDCHAR

STARTCHAR quoteright
ENCODING 39
SWIDTH 278 0
DWIDTH 4 0
BBX 4 4 2 7
BITMAP
30
60
20
C0
ENDCHAR

STARTCHAR parenleft
ENCODING 40
SWIDTH 333 0
DWIDTH 5 0
BBX 5 14 1 -3
BITMAP
08
10
30
20
60
60
C0
C0
C0
C0
C0
C0
40
20
ENDCHAR

STARTCHAR parenright
ENCODING 41
SWIDTH 333 0
DWIDTH 5 0
BBX 5 14 0 -3
BITMAP
20
10
18
18
18
18
18
18
30
30
20
60
40
80
ENDCHAR

STARTCHAR asterisk
ENCODING 42
SWIDTH 389 0
DWIDTH 6 0
BBX 5 5 2 6
BITMAP
20
A8
F8
70
D8
ENDCHAR

STARTCHAR plus
ENCODING 43
SWIDTH 584 0
DWIDTH 9 0
BBX 8 8 1 1
BITMAP
18
18
18
FF
FF
18
18
18
ENDCHAR

STARTCHAR comma
ENCODING 44
SWIDTH 278 0
DWIDTH 4 0
BBX 4 4 0 -2
BITMAP
30
60
20
C0
ENDCHAR

STARTCHAR minus
ENCODING 45
SWIDTH 584 0
DWIDTH 9 0
BBX 8 2 1 4
BITMAP
FF
FF
ENDCHAR

STARTCHAR period
ENCODING 46
SWIDTH 278 0
DWIDTH 4 0
BBX 3 2 1 0
BITMAP
60
C0
ENDCHAR

STARTCHAR slash
ENCODING 47
SWIDTH 278 0
DWIDTH 4 0
BBX 4 11 1 0
BITMAP
30
30
30
30
60
60
60
C0
C0
C0
C0
ENDCHAR

STARTCHAR zero
ENCODING 48
SWIDTH 556 0
DWIDTH 8 0
BBX 8 11 1 0
BITMAP
1E
3F
73
63
E3
C3
C7
C6
CE
FC
78
ENDCHAR

STARTCHAR one
ENCODING 49
SWIDTH 556 0
DWIDTH 8 0
BBX 5 11 2 0
BITMAP
18
38
78
98
38
30
30
30
60
60
60
ENDCHAR

STARTCHAR two
ENCODING 50
SWIDTH 556 0
DWIDTH 8 0
BBX 9 11 0 0
BITMAP
0F00
1F80
3980
1180
0380
0700
0E00
1C00
3800
7F00
FF00
ENDCHAR

STARTCHAR three
ENCODING 51
SWIDTH 556 0
DWIDTH 8 0
BBX 8 11 0 0
BITMAP
1E
3F
13
03
0E
1E
07
03
C7
7E
3C
ENDCHAR

STARTCHAR four
ENCODING 52
SWIDTH 556 0
DWIDTH 8 0
BBX 8 11 0 0
BITMAP
01
03
07
0F
1E
36
66
FF
FF
0C
0C
ENDCHAR

STARTCHAR five
ENCODING 53
SWIDTH 556 0
DWIDTH 8 0
BBX 7 11 1 0
BITMAP
3E
3E
60
78
FC
0E
06
C6
CE
FC
78
ENDCHAR

STARTCHAR six
ENCODING 54
SWIDTH 556 0
DWIDTH 8 0
BBX 7 11 1 0
BITMAP
1C
3E
66
60
FC
EE
C6
C6
EE
7C
38
ENDCHAR

STARTCHAR seven
ENCODING 55
SWIDTH 556 0
DWIDTH 8 0
BBX 7 11 2 0
BITMAP
FE
FE
0C
18
30
30
60
60
C0
C0
C0
ENDCHAR

STARTCHAR eight
ENCODING 56
SWIDTH 556 0
DWIDTH 8 0
BBX 8 11 1 0
BITMAP
1E
3F
63
63
3E
7E
E6
C6
CE
FC
78
ENDCHAR

STARTCHAR nine
ENCODING 57
SWIDTH 556 0
DWIDTH 8 0
BBX 8 11 1 0
BITMAP
1C
3E
73
63
63
77
3F
06
C6
7C
38
ENDCHAR

STARTCHAR colon
ENCODING 58
SWIDTH 333 0
DWIDTH 5 0
BBX 4 8 1 0
BITMAP
30
60
00
00
00
00
60
C0
ENDCHAR

STARTCHAR semicolon
ENCODING 59
SWIDTH 333 0
DWIDTH 5 0
BBX 5 10 0 -2
BITMAP
18
30
00
00
00
00
30
60
20
C0
ENDCHAR

STARTCHAR less
ENCODING 60
SWIDTH 584 0
DWIDTH 9 0
BBX 8 8 1 1
BITMAP
03
0F
3C
F0
F0
3C
0F
03
ENDCHAR

STARTCHAR equal
ENCODING 61
SWIDTH 584 0
DWIDTH 9 0
BBX 8 5 1 3
BITMAP
FF
FF
00
FF
FF
ENDCHAR

STARTCHAR greater
ENCODING 62
SWIDTH 584 0
DWIDTH 9 0
BBX 8 8 1 1
BITMAP
C0
F0
3C
0F
0F
3C
F0
C0
ENDCHAR

STARTCHAR question
ENCODING 63
SWIDTH 611 0
DWIDTH 9 0
BBX 6 11 3 0
BITMAP
38
7C
CC
8C
18
30
60
60
00
60
60
ENDCHAR

STARTCHAR at
ENCODING 64
SWIDTH 975 0
DWIDTH 15 0
BBX 14 14 0 -3
BITMAP
0FC0
3870
6018
47A8
CCEC
9C64
9844
98CC
98D8
DDF0
4EE4
600C
3838
0FE0
ENDCHAR

STARTCHAR A
ENCODING 65
SWIDTH 722 0
DWIDTH 11 0
BBX 10 11 0 0
BITMAP
0180
0380
07C0
06C0
0CC0
18C0
18C0
3FC0
7FC0
60C0
C0C0
ENDCHAR

STARTCHAR B
ENCODING 66
SWIDTH 722 0
DWIDTH 11 0
BBX 10 11 1 0
BITMAP
3F80
3FC0
30C0
30C0
7F80
7F80
60C0
60C0
C1C0
FF80
FE00
ENDCHAR

STARTCHAR C
ENCODING 67
SWIDTH 722 0
DWIDTH 11 0
BBX 9 11 2 0
BITMAP
0F00
3F80
7180
6000
C000
C000
C000
C180
6380
7F00
1C00
ENDCHAR

STARTCHAR D
ENCODING 68
SWIDTH 722 0
DWIDTH 11 0
BBX 10 11 1 0
BITMAP
3E00
3F80
3180
30C0
60C0
60C0
60C0
C180
C380
FF00
FC00
ENDCHAR

STARTCHAR E
ENCODING 69
SWIDTH 667 0
DWIDTH 10 0
BBX 10 11 1 0
BITMAP
3FC0
3FC0
3000
6000
7F80
7F80
6000
C000
C000
FF00
FF00
ENDCHAR

STARTCHAR F
ENCODING 70
SWIDTH 611 0
DWIDTH 9 0
BBX 9 11 1 0
BITMAP
3F80
3F80
3000
6000
7F00
7F00
6000
C000
C000
C000
C000
ENDCHAR

STARTCHAR G
ENCODING 71
SWIDTH 778 0
DWIDTH 12 0
BBX 10 11 2 0
BITMAP
0F00
3F80
71C0
60C0
C000
C7C0
C7C0
C1C0
6180
7F80
1E00
ENDCHAR

STARTCHAR H
ENCODING 72
SWIDTH 722 0
DWIDTH 11 0
BBX 11 11 1 0
BITMAP
3060
3060
3060
60C0
7FC0
7FC0
60C0
C180
C180
C180
C180
ENDCHAR

STARTCHAR I
ENCODING 73
SWIDTH 278 0
DWIDTH 4 0
BBX 4 11 1 0
BITMAP
30
30
30
60
60
60
60
C0
C0
C0
C0
ENDCHAR

STARTCHAR J
ENCODING 74
SWIDTH 556 0
DWIDTH 8 0
BBX 9 11 0 0
BITMAP
0180
0180
0180
0300
0300
0300
0300
0600
C600
FC00
7800
ENDCHAR

STARTCHAR K
ENCODING 75
SWIDTH 722 0
DWIDTH 11 0
BBX 10 11 1 0
BITMAP
30C0
3180
3300
6600
6C00
7C00
7E00
E600
C300
C300
C180
ENDCHAR

STARTCHAR L
ENCODING 76
SWIDTH 611 0
DWIDTH 9 0
BBX 8 11 1 0
BITMAP
30
30
30
60
60
60
60
C0
C0
FF
FF
ENDCHAR

STARTCHAR M
ENCODING 77
SWIDTH 833 0
DWIDTH 12 0
BBX 12 11 1 0
BITMAP
3030
3030
3870
7860
78E0
79E0
7BE0
DEC0
CEC0
CCC0
CCC0
ENDCHAR

STARTCHAR N
ENCODING 78
SWIDTH 722 0
DWIDTH 11 0
BBX 11 11 1 0
BITMAP
3060
3060
3860
7860
7CC0
6CC0
66C0
C6C0
C380
C380
C380
ENDCHAR

STARTCHAR O
ENCODING 79
SWIDTH 778 0
DWIDTH 12 0
BBX 10 11 2 0
BITMAP
0F00
3F80
71C0
60C0
C0C0
C0C0
C0C0
C180
E380
7F00
3C00
ENDCHAR

STARTCHAR P
ENCODING 80
SWIDTH 667 0
DWIDTH 10 0
BBX 10 11 1 0
BITMAP
3F80
3FC0
30C0
30C0
61C0
7F80
7E00
6000
C000
C000
C000
ENDCHAR

STARTCHAR Q
ENCODING 81
SWIDTH 778 0
DWIDTH 12 0
BBX 10 12 2 -1
BITMAP
0F00
3F80
71C0
60C0
C0C0
C0C0
C0C0
CD80
E780
7F00
3D80
0080
ENDCHAR

STARTCHAR R
ENCODING 82
SWIDTH 722 0
DWIDTH 11 0
BBX 10 11 1 0
BITMAP
3F80
3FC0
30C0
61C0
7F80
7F00
6600
C300
C300
C180
C180
ENDCHAR

STARTCHAR S
ENCODING 83
SWIDTH 667 0
DWIDTH 10 0
BBX 9 11 1 0
BITMAP
1E00
3F00
6380
6180
7800
3E00
0F00
C300
E300
7E00
3C00
ENDCHAR

STARTCHAR T
ENCODING 84
SWIDTH 611 0
DWIDTH 9 0
BBX 8 11 2 0
BITMAP
FF
FF
18
18
30
30
30
30
60
60
60
ENDCHAR

STARTCHAR U
ENCODING 85
SWIDTH 722 0
DWIDTH 11 0
BBX 11 11 1 0
BITMAP
3060
3060
3060
60C0
60C0
60C0
C180
C180
C380
FF00
7E00
ENDCHAR

STARTCHAR V
ENCODING 86
SWIDTH 667 0
DWIDTH 10 0
BBX 9 11 2 0
BITMAP
C180
C180
C300
C300
6600
6600
6C00
6C00
3800
3000
3000
ENDCHAR

STARTCHAR W
ENCODING 87
SWIDTH 944 0
DWIDTH 14 0
BBX 14 11 2 0
BITMAP
C30C
C718
C718
CF30
CB30
DB60
D360
F3C0
E380
E380
C300
ENDCHAR

STARTCHAR X
ENCODING 88
SWIDTH 667 0
DWIDTH 10 0
BBX 13 11 -1 0
BITMAP
1838
0C70
0CE0
07C0
0780
0700
0F80
1D80
38C0
70C0
E060
ENDCHAR

STARTCHAR Y
ENCODING 89
SWIDTH 667 0
DWIDTH 10 0
BBX 10 11 2 0
BITMAP
C1C0
E380
6300
3600
3600
1C00
1800
1800
3000
3000
3000
ENDCHAR

STARTCHAR Z
ENCODING 90
SWIDTH 611 0
DWIDTH 9 0
BBX 10 11 0 0
BITMAP
3FC0
3FC0
0180
0300
0600
0C00
0C00
1800
3000
7F80
FF80
ENDCHAR

STARTCHAR bracketleft
ENCODING 91
SWIDTH 333 0
DWIDTH 5 0
BBX 6 14 0 -3
BITMAP
3C
3C
30
30
30
60
60
60
60
C0
C0
C0
F0
F0
ENDCHAR

STARTCHAR backslash
ENCODING 92
SWIDTH 278 0
DWIDTH 4 0
BBX 4 11 1 0
BITMAP
80
C0
C0
40
60
60
20
30
30
10
10
ENDCHAR

STARTCHAR bracketright
ENCODING 93
SWIDTH 333 0
DWIDTH 5 0
BBX 6 14 0 -3
BITMAP
3C
3C
0C
0C
0C
18
18
18
18
30
30
30
F0
F0
ENDCHAR

STARTCHAR asciicircum
ENCODING 94
SWIDTH 584 0
DWIDTH 9 0
BBX 6 6 2 5
BITMAP
30
30
78
78
CC
CC
ENDCHAR

STARTCHAR underscore
ENCODING 95
SWIDTH 556 0
DWIDTH 8 0
BBX 8 1 0 -2
BITMAP
FF
ENDCHAR

STARTCHAR quoteleft
ENCODING 96
SWIDTH 278 0
DWIDTH 4 0
BBX 4 4 1 7
BITMAP
30
40
60
C0
ENDCHAR

STARTCHAR a
ENCODING 97
SWIDTH 556 0
DWIDTH 8 0
BBX 8 8 1 0
BITMAP
1E
3F
03
3F
66
C6
FE
76
ENDCHAR

STARTCHAR b
ENCODING 98
SWIDTH 611 0
DWIDTH 9 0
BBX 8 11 1 0
BITMAP
30
30
30
6E
7F
73
63
C3
E7
FE
DC
ENDCHAR

STARTCHAR c
ENCODING 99
SWIDTH 556 0
DWIDTH 8 0
BBX 8 8 1 0
BITMAP
1E
3F
61
E0
C0
C2
7E
3C
ENDCHAR

STARTCHAR d
ENCODING 100
SWIDTH 611 0
DWIDTH 9 0
BBX 9 11 1 0
BITMAP
0180
0180
0180
3B00
7F00
E700
C300
C600
C600
FE00
7600
ENDCHAR

STARTCHAR e
ENCODING 101
SWIDTH 556 0
DWIDTH 8 0
BBX 8 8 1 0
BITMAP
1E
37
63
7F
FE
C0
E6
7C
ENDCHAR

STARTCHAR f
ENCODING 102
SWIDTH 333 0
DWIDTH 5 0
BBX 6 11 1 0
BITMAP
1C
3C
30
F8
F8
60
60
60
C0
C0
C0
ENDCHAR

STARTCHAR g
ENCODING 103
SWIDTH 611 0
DWIDTH 9 0
BBX 8 11 1 -3
BITMAP
3B
7F
E7
C3
C3
C6
FE
76
8E
FC
78
ENDCHAR

STARTCHAR h
ENCODING 104
SWIDTH 611 0
DWIDTH 9 0
BBX 8 11 1 0
BITMAP
30
30
30
6E
7F
73
63
E7
C6
C6
C6
ENDCHAR

STARTCHAR i
ENCODING 105
SWIDTH 278 0
DWIDTH 4 0
BBX 4 11 1 0
BITMAP
30
30
00
60
60
60
60
C0
C0
C0
C0
ENDCHAR

STARTCHAR j
ENCODING 106
SWIDTH 278 0
DWIDTH 4 0
BBX 7 14 -2 -3
BITMAP
06
06
00
0C
0C
0C
0C
18
18
18
18
30
30
E0
ENDCHAR

STARTCHAR k
ENCODING 107
SWIDTH 556 0
DWIDTH 8 0
BBX 8 11 1 0
BITMAP
30
30
30
63
66
6C
78
EC
CC
C6
C6
ENDCHAR

STARTCHAR l
ENCODING 108
SWIDTH 278 0
DWIDTH 4 0
BBX 4 11 1 0
BITMAP
30
30
30
60
60
60
60
C0
C0
C0
C0
ENDCHAR

STARTCHAR m
ENCODING 109
SWIDTH 889 0
DWIDTH 14 0
BBX 13 8 1 0
BITMAP
6EF0
7FF8
7318
6318
6318
C630
C630
C630
ENDCHAR

STARTCHAR n
ENCODING 110
SWIDTH 611 0
DWIDTH 9 0
BBX 8 8 1 0
BITMAP
6E
7F
73
63
63
C6
C6
C6
ENDCHAR

STARTCHAR o
ENCODING 111
SWIDTH 611 0
DWIDTH 9 0
BBX 8 8 1 0
BITMAP
1E
7F
63
C3
C3
C6
FE
78
ENDCHAR

STARTCHAR p
ENCODING 112
SWIDTH 611 0
DWIDTH 9 0
BBX 9 11 0 -3
BITMAP
3700
3F80
3980
3180
6180
7300
7F00
6E00
C000
C000
C000
ENDCHAR

STARTCHAR q
ENCODING 113
SWIDTH 611 0
DWIDTH 9 0
BBX 8 11 1 -3
BITMAP
3B
7F
E7
C3
C6
CE
FE
76
0C
0C
0C
ENDCHAR

STARTCHAR r
ENCODING 114
SWIDTH 389 0
DWIDTH 6 0
BBX 6 8 1 0
BITMAP
6C
7C
70
60
C0
C0
C0
C0
ENDCHAR

STARTCHAR s
ENCODING 115
SWIDTH 556 0
DWIDTH 8 0
BBX 8 8 1 0
BITMAP
3E
77
63
38
1C
C6
EE
7C
ENDCHAR

STARTCHAR t
ENCODING 116
SWIDTH 333 0
DWIDTH 5 0
BBX 7 11 0 0
BITMAP
08
18
18
7E
FC
30
70
60
60
78
30
ENDCHAR

STARTCHAR u
ENCODING 117
SWIDTH 611 0
DWIDTH 9 0
BBX 8 8 1 0
BITMAP
63
63
63
C6
C6
CE
FE
76
ENDCHAR

STARTCHAR v
ENCODING 118
SWIDTH 556 0
DWIDTH 8 0
BBX 7 8 2 0
BITMAP
C6
CC
CC
D8
F0
F0
E0
C0
ENDCHAR

STARTCHAR w
ENCODING 119
SWIDTH 778 0
DWIDTH 11 0
BBX 10 8 2 0
BITMAP
CCC0
CCC0
DD80
DD80
F780
E700
E700
C600
ENDCHAR

STARTCHAR x
ENCODING 120
SWIDTH 556 0
DWIDTH 8 0
BBX 9 8 0 0
BITMAP
6180
7300
3E00
1C00
1C00
3E00
6700
C300
ENDCHAR

STARTCHAR y
ENCODING 121
SWIDTH 556 0
DWIDTH 8 0
BBX 9 11 0 -3
BITMAP
3180
3180
3300
3300
3E00
1C00
1C00
1800
3800
F000
E000
ENDCHAR

STARTCHAR z
ENCODING 122
SWIDTH 500 0
DWIDTH 8 0
BBX 9 8 0 0
BITMAP
3F80
3F00
0600
0C00
1800
3000
7F00
FF00
ENDCHAR

STARTCHAR braceleft
ENCODING 123
SWIDTH 389 0
DWIDTH 6 0
BBX 7 14 1 -3
BITMAP
0E
1E
18
30
30
30
E0
C0
60
60
60
60
70
30
ENDCHAR

STARTCHAR bar
ENCODING 124
SWIDTH 280 0
DWIDTH 4 0
BBX 2 14 2 -3
BITMAP
C0
C0
C0
C0
C0
C0
C0
C0
C0
C0
C0
C0
C0
C0
ENDCHAR

STARTCHAR braceright
ENCODING 125
SWIDTH 389 0
DWIDTH 6 0
BBX 7 14 -1 -3
BITMAP
18
1C
0C
0C
0C
0C
06
0E
18
18
18
30
F0
E0
ENDCHAR

STARTCHAR asciitilde
ENCODING 126
SWIDTH 584 0
DWIDTH 9 0
BBX 8 3 1 4
BITMAP
71
FF
8E
ENDCHAR

STARTCHAR space
ENCODING 160
SWIDTH 278 0
DWIDTH 5 0
BBX 0 0 0 0
BITMAP
ENDCHAR

STARTCHAR Aogonek
ENCODING 161
SWIDTH 722 0
DWIDTH 11 0
BBX 11 14 0 -3
BITMAP
0180
0380
07C0
06C0
0CC0
18C0
18C0
3FC0
7FC0
60C0
C0C0
0080
00C0
0060
ENDCHAR

STARTCHAR breve
ENCODING 162
SWIDTH 333 0
DWIDTH 5 0
BBX 6 2 0 9
BITMAP
CC
78
ENDCHAR

STARTCHAR Lslash
ENCODING 163
SWIDTH 611 0
DWIDTH 9 0
BBX 9 11 0 0
BITMAP
1800
1800
1800
3600
3C00
3800
7000
E000
E000
7F80
7F80
ENDCHAR

STARTCHAR currency
ENCODING 164
SWIDTH 556 0
DWIDTH 8 0
BBX 7 7 1 2
BITMAP
BA
7C
C6
C6
C6
7C
BA
ENDCHAR

STARTCHAR Lcaron
ENCODING 165
SWIDTH 611 0
DWIDTH 9 0
BBX 8 11 1 0
BITMAP
36
36
34
68
60
60
60
C0
C0
FF
FF
ENDCHAR

STARTCHAR Sacute
ENCODING 166
SWIDTH 667 0
DWIDTH 10 0
BBX 9 14 1 0
BITMAP
0600
0C00
0000
1E00
3F00
6380
6180
7800
3E00
0F00
C300
E300
7E00
3C00
ENDCHAR

STARTCHAR section
ENCODING 167
SWIDTH 556 0
DWIDTH 8 0
BBX 9 14 0 -3
BITMAP
0E00
1F00
3180
3C00
3E00
6700
6300
6300
7300
3F00
1E00
C600
7C00
3800
ENDCHAR

STARTCHAR dieresis
ENCODING 168
SWIDTH 333 0
DWIDTH 5 0
BBX 5 2 1 9
BITMAP
D8
D8
ENDCHAR

STARTCHAR Scaron
ENCODING 169
SWIDTH 667 0
DWIDTH 10 0
BBX 9 14 1 0
BITMAP
1B00
0E00
0000
1E00
3F00
6380
6180
7800
3E00
0F00
C300
E300
7E00
3C00
ENDCHAR

STARTCHAR Scommaaccent
ENCODING 170
SWIDTH 667 0
DWIDTH 10 0
BBX 9 15 1 -4
BITMAP
1E00
3F00
6380
6180
7800
3E00
0F00
C300
E300
7E00
3C00
0000
1800
1800
3000
ENDCHAR

STARTCHAR Tcaron
ENCODING 171
SWIDTH 611 0
DWIDTH 9 0
BBX 8 14 2 0
BITMAP
36
1C
00
FF
FF
18
18
30
30
30
30
60
60
60
ENDCHAR

STARTCHAR Zacute
ENCODING 172
SWIDTH 611 0
DWIDTH 9 0
BBX 10 14 0 0
BITMAP
0300
0600
0000
3FC0
3FC0
0180
0300
0600
0C00
0C00
1800
3000
7F80
FF80
ENDCHAR

STARTCHAR hyphen
ENCODING 173
SWIDTH 333 0
DWIDTH 5 0
BBX 4 2 1 3
BITMAP
F0
F0
ENDCHAR

STARTCHAR Zcaron
ENCODING 174
SWIDTH 611 0
DWIDTH 9 0
BBX 10 14 0 0
BITMAP
0D80
0700
0000
3FC0
3FC0
0180
0300
0600
0C00
0C00
1800
3000
7F80
FF80
ENDCHAR

STARTCHAR Zdotaccent
ENCODING 175
SWIDTH 611 0
DWIDTH 9 0
BBX 10 14 0 0
BITMAP
0300
0300
0000
3FC0
3FC0
0180
0300
0600
0C00
0C00
1800
3000
7F80
FF80
ENDCHAR

STARTCHAR degree
ENCODING 176
SWIDTH 400 0
DWIDTH 6 0
BBX 4 4 2 7
BITMAP
60
90
90
60
ENDCHAR

STARTCHAR aogonek
ENCODING 177
SWIDTH 556 0
DWIDTH 8 0
BBX 8 11 1 -3
BITMAP
1E
3F
03
3F
66
C6
FE
76
04
06
03
ENDCHAR

STARTCHAR ogonek
ENCODING 178
SWIDTH 333 0
DWIDTH 5 0
BBX 3 3 1 -3
BITMAP
80
C0
60
ENDCHAR

STARTCHAR lslash
ENCODING 179
SWIDTH 278 0
DWIDTH 4 0
BBX 6 11 0 0
BITMAP
18
18
18
34
3C
38
30
E0
E0
60
60
ENDCHAR

STARTCHAR acute
ENCODING 180
SWIDTH 333 0
DWIDTH 5 0
BBX 3 2 4 9
BITMAP
60
C0
ENDCHAR

STARTCHAR lcaron
ENCODING 181
SWIDTH 396 0
DWIDTH 4 0
BBX 7 11 1 0
BITMAP
36
36
34
68
60
60
60
C0
C0
C0
C0
ENDCHAR

STARTCHAR sacute
ENCODING 182
SWIDTH 556 0
DWIDTH 8 0
BBX 8 11 1 0
BITMAP
06
0C
00
3E
77
63
38
1C
C6
EE
7C
ENDCHAR

STARTCHAR caron
ENCODING 183
SWIDTH 333 0
DWIDTH 5 0
BBX 5 2 1 9
BITMAP
D8
70
ENDCHAR

STARTCHAR commaaccent
ENCODING 184
SWIDTH 333 0
DWIDTH 5 0
BBX 3 3 1 -4
BITMAP
60
60
C0
ENDCHAR

STARTCHAR scaron
ENCODING 185
SWIDTH 556 0
DWIDTH 8 0
BBX 8 11 1 0
BITMAP
1B
0E
00
3E
77
63
38
1C
C6
EE
7C
ENDCHAR

STARTCHAR scommaaccent
ENCODING 186
SWIDTH 556 0
DWIDTH 8 0
BBX 8 12 1 -4
BITMAP
3E
77
63
38
1C
C6
EE
7C
00
30
30
60
ENDCHAR

STARTCHAR tcaron
ENCODING 187
SWIDTH 479 0
DWIDTH 5 0
BBX 8 12 0 0
BITMAP
03
0B
1A
1C
7E
FC
30
70
60
60
78
30
ENDCHAR

STARTCHAR zacute
ENCODING 188
SWIDTH 500 0
DWIDTH 8 0
BBX 9 11 0 0
BITMAP
0600
0C00
0000
3F80
3F00
0600
0C00
1800
3000
7F00
FF00
ENDCHAR

STARTCHAR hungarumlaut
ENCODING 189
SWIDTH 333 0
DWIDTH 5 0
BBX 6 2 1 9
BITMAP
6C
D8
ENDCHAR

STARTCHAR zcaron
ENCODING 190
SWIDTH 500 0
DWIDTH 8 0
BBX 9 11 0 0
BITMAP
1B00
0E00
0000
3F80
3F00
0600
0C00
1800
3000
7F00
FF00
ENDCHAR

STARTCHAR zdotaccent
ENCODING 191
SWIDTH 500 0
DWIDTH 8 0
BBX 9 11 0 0
BITMAP
0600
0600
0000
3F80
3F00
0600
0C00
1800
3000
7F00
FF00
ENDCHAR

STARTCHAR Racute
ENCODING 192
SWIDTH 722 0
DWIDTH 11 0
BBX 10 14 1 0
BITMAP
0300
0600
0000
3F80
3FC0
30C0
61C0
7F80
7F00
6600
C300
C300
C180
C180
ENDCHAR

STARTCHAR Aacute
ENCODING 193
SWIDTH 722 0
DWIDTH 11 0
BBX 10 14 0 0
BITMAP
00C0
0180
0000
0180
0380
07C0
06C0
0CC0
18C0
18C0
3FC0
7FC0
60C0
C0C0
ENDCHAR

STARTCHAR Acircumflex
ENCODING 194
SWIDTH 722 0
DWIDTH 11 0
BBX 11 14 0 0
BITMAP
01C0
0360
0000
0180
0380
07C0
06C0
0CC0
18C0
18C0
3FC0
7FC0
60C0
C0C0
ENDCHAR

STARTCHAR Abreve
ENCODING 195
SWIDTH 722 0
DWIDTH 11 0
BBX 11 14 0 0
BITMAP
0660
03C0
0000
0180
0380
07C0
06C0
0CC0
18C0
18C0
3FC0
7FC0
60C0
C0C0
ENDCHAR

STARTCHAR Adieresis
ENCODING 196
SWIDTH 722 0
DWIDTH 11 0
BBX 11 14 0 0
BITMAP
0360
0360
0000
0180
0380
07C0
06C0
0CC0
18C0
18C0
3FC0
7FC0
60C0
C0C0
ENDCHAR

STARTCHAR Lacute
ENCODING 197
SWIDTH 611 0
DWIDTH 9 0
BBX 8 14 1 0
BITMAP
0C
18
00
30
30
30
60
60
60
60
C0
C0
FF
FF
ENDCHAR

STARTCHAR Cacute
ENCODING 198
SWIDTH 722 0
DWIDTH 11 0
BBX 9 14 2 0
BITMAP
0300
0600
0000
0F00
3F80
7180
6000
C000
C000
C000
C180
6380
7F00
1C00
ENDCHAR

STARTCHAR Ccedilla
ENCODING 199
SWIDTH 722 0
DWIDTH 11 0
BBX 9 14 2 -3
BITMAP
0F00
3F80
7180
6000
C000
C000
C000
C180
6380
7F00
1C00
0C00
0400
1800
ENDCHAR

STARTCHAR Ccaron
ENCODING 200
SWIDTH 722 0
DWIDTH 11 0
BBX 9 14 2 0
BITMAP
0D80
0700
0000
0F00
3F80
7180
6000
C000
C000
C000
C180
6380
7F00
1C00
ENDCHAR

STARTCHAR Eacute
ENCODING 201
SWIDTH 667 0
DWIDTH 10 0
BBX 10 14 1 0
BITMAP
0300
0600
0000
3FC0
3FC0
3000
6000
7F80
7F80
6000
C000
C000
FF00
FF00
ENDCHAR

STARTCHAR Eogonek
ENCODING 202
SWIDTH 667 0
DWIDTH 10 0
BBX 10 14 1 -3
BITMAP
3FC0
3FC0
3000
6000
7F80
7F80
6000
C000
C000
FF00
FF00
0200
0300
0180
ENDCHAR

STARTCHAR Edieresis
ENCODING 203
SWIDTH 667 0
DWIDTH 10 0
BBX 10 14 1 0
BITMAP
0D80
0D80
0000
3FC0
3FC0
3000
6000
7F80
7F80
6000
C000
C000
FF00
FF00
ENDCHAR

STARTCHAR Ecaron
ENCODING 204
SWIDTH 667 0
DWIDTH 10 0
BBX 10 14 1 0
BITMAP
0D80
0700
0000
3FC0
3FC0
3000
6000
7F80
7F80
6000
C000
C000
FF00
FF00
ENDCHAR

STARTCHAR Iacute
ENCODING 205
SWIDTH 278 0
DWIDTH 4 0
BBX 5 14 1 0
BITMAP
18
30
00
30
30
30
60
60
60
60
C0
C0
C0
C0
ENDCHAR

STARTCHAR Icircumflex
ENCODING 206
SWIDTH 278 0
DWIDTH 4 0
BBX 6 14 1 0
BITMAP
38
6C
00
30
30
30
60
60
60
60
C0
C0
C0
C0
ENDCHAR

STARTCHAR Dcaron
ENCODING 207
SWIDTH 722 0
DWIDTH 11 0
BBX 10 14 1 0
BITMAP
0D80
0700
0000
3E00
3F80
3180
30C0
60C0
60C0
60C0
C180
C380
FF00
FC00
ENDCHAR

STARTCHAR Dcroat
ENCODING 208
SWIDTH 722 0
DWIDTH 11 0
BBX 10 11 1 0
BITMAP
3E00
3F80
3180
30C0
F8C0
F8C0
60C0
C180
C380
FF00
FC00
ENDCHAR

STARTCHAR Nacute
ENCODING 209
SWIDTH 722 0
DWIDTH 11 0
BBX 11 14 1 0
BITMAP
0180
0300
0000
3060
3060
3860
7860
7CC0
6CC0
66C0
C6C0
C380
C380
C380
ENDCHAR

STARTCHAR Ncaron
ENCODING 210
SWIDTH 722 0
DWIDTH 11 0
BBX 11 14 1 0
BITMAP
0D80
0700
0000
3060
3060
3860
7860
7CC0
6CC0
66C0
C6C0
C380
C380
C380
ENDCHAR

STARTCHAR Oacute
ENCODING 211
SWIDTH 778 0
DWIDTH 12 0
BBX 10 14 2 0
BITMAP
0300
0600
0000
0F00
3F80
71C0
60C0
C0C0
C0C0
C0C0
C180
E380
7F00
3C00
ENDCHAR

STARTCHAR Ocircumflex
ENCODING 212
SWIDTH 778 0
DWIDTH 12 0
BBX 10 14 2 0
BITMAP
0700
0D80
0000
0F00
3F80
71C0
60C0
C0C0
C0C0
C0C0
C180
E380
7F00
3C00
ENDCHAR

STARTCHAR Ohungarumlaut
ENCODING 213
SWIDTH 778 0
DWIDTH 12 0
BBX 10 14 2 0
BITMAP
0D80
1B00
0000
0F00
3F80
71C0
60C0
C0C0
C0C0
C0C0
C180
E380
7F00
3C00
ENDCHAR

STARTCHAR Odieresis
ENCODING 214
SWIDTH 778 0
DWIDTH 12 0
BBX 10 14 2 0
BITMAP
0D80
0D80
0000
0F00
3F80
71C0
60C0
C0C0
C0C0
C0C0
C180
E380
7F00
3C00
ENDCHAR

STARTCHAR multiply
ENCODING 215
SWIDTH 584 0
DWIDTH 9 0
BBX 6 7 2 2
BITMAP
84
CC
78
30
78
CC
84
ENDCHAR

STARTCHAR Rcaron
ENCODING 216
SWIDTH 722 0
DWIDTH 11 0
BBX 10 14 1 0
BITMAP
1B00
0E00
0000
3F80
3FC0
30C0
61C0
7F80
7F00
6600
C300
C300
C180
C180
ENDCHAR

STARTCHAR Uring
ENCODING 217
SWIDTH 722 0
DWIDTH 11 0
BBX 11 14 1 0
BITMAP
0200
0500
0200
3060
3060
3060
60C0
60C0
60C0
C180
C180
C380
FF00
7E00
ENDCHAR

STARTCHAR Uacute
ENCODING 218
SWIDTH 722 0
DWIDTH 11 0
BBX 11 14 1 0
BITMAP
0300
0600
0000
3060
3060
3060
60C0
60C0
60C0
C180
C180
C380
FF00
7E00
ENDCHAR

STARTCHAR Uhungarumlaut
ENCODING 219
SWIDTH 722 0
DWIDTH 11 0
BBX 11 14 1 0
BITMAP
06C0
0D80
0000
3060
3060
3060
60C0
60C0
60C0
C180
C180
C380
FF00
7E00
ENDCHAR

STARTCHAR Udieresis
ENCODING 220
SWIDTH 722 0
DWIDTH 11 0
BBX 11 14 1 0
BITMAP
0D80
0D80
0000
3060
3060
3060
60C0
60C0
60C0
C180
C180
C380
FF00
7E00
ENDCHAR

STARTCHAR Yacute
ENCODING 221
SWIDTH 667 0
DWIDTH 10 0
BBX 10 14 2 0
BITMAP
0600
0C00
0000
C1C0
E380
6300
3600
3600
1C00
1800
1800
3000
3000
3000
ENDCHAR

STARTCHAR Tcommaaccent
ENCODING 222
SWIDTH 611 0
DWIDTH 9 0
BBX 8 15 2 -4
BITMAP
FF
FF
18
18
30
30
30
30
60
60
60
00
60
60
C0
ENDCHAR

STARTCHAR germandbls
ENCODING 223
SWIDTH 611 0
DWIDTH 9 0
BBX 8 11 1 0
BITMAP
0E
3F
33
77
6E
6C
66
63
C3
DF
CE
ENDCHAR

STARTCHAR racute
ENCODING 224
SWIDTH 389 0
DWIDTH 6 0
BBX 6 11 1 0
BITMAP
0C
18
00
6C
7C
70
60
C0
C0
C0
C0
ENDCHAR

STARTCHAR aacute
ENCODING 225
SWIDTH 556 0
DWIDTH 8 0
BBX 8 11 1 0
BITMAP
06
0C
00
1E
3F
03
3F
66
C6
FE
76
ENDCHAR

STARTCHAR acircumflex
ENCODING 226
SWIDTH 556 0
DWIDTH 8 0
BBX 8 11 1 0
BITMAP
0E
1B
00
1E
3F
03
3F
66
C6
FE
76
ENDCHAR

STARTCHAR abreve
ENCODING 227
SWIDTH 556 0
DWIDTH 8 0
BBX 9 11 1 0
BITMAP
1980
0F00
0000
1E00
3F00
0300
3F00
6600
C600
FE00
7600
ENDCHAR

STARTCHAR adieresis
ENCODING 228
SWIDTH 556 0
DWIDTH 8 0
BBX 8 11 1 0
BITMAP
1B
1B
00
1E
3F
03
3F
66
C6
FE
76
ENDCHAR

STARTCHAR lacute
ENCODING 229
SWIDTH 278 0
DWIDTH 4 0
BBX 6 14 1 0
BITMAP
0C
18
00
30
30
30
60
60
60
60
C0
C0
C0
C0
ENDCHAR

STARTCHAR cacute
ENCODING 230
SWIDTH 556 0
DWIDTH 8 0
BBX 8 11 1 0
BITMAP
06
0C
00
1E
3F
61
E0
C0
C2
7E
3C
ENDCHAR

STARTCHAR ccedilla
ENCODING 231
SWIDTH 556 0
DWIDTH 8 0
BBX 8 11 1 -3
BITMAP
1E
3F
61
E0
C0
C2
7E
3C
18
08
30
ENDCHAR

STARTCHAR ccaron
ENCODING 232
SWIDTH 556 0
DWIDTH 8 0
BBX 8 11 1 0
BITMAP
1B
0E
00
1E
3F
61
E0
C0
C2
7E
3C
ENDCHAR

STARTCHAR eacute
ENCODING 233
SWIDTH 556 0
DWIDTH 8 0
BBX 8 11 1 0
BITMAP
06
0C
00
1E
37
63
7F
FE
C0
E6
7C
ENDCHAR

STARTCHAR eogonek
ENCODING 234
SWIDTH 556 0
DWIDTH 8 0
BBX 8 11 1 -3
BITMAP
1E
37
63
7F
FE
C0
E6
7C
10
18
0C
ENDCHAR

STARTCHAR edieresis
ENCODING 235
SWIDTH 556 0
DWIDTH 8 0
BBX 8 11 1 0
BITMAP
1B
1B
00
1E
37
63
7F
FE
C0
E6
7C
ENDCHAR

STARTCHAR ecaron
ENCODING 236
SWIDTH 556 0
DWIDTH 8 0
BBX 8 11 1 0
BITMAP
1B
0E
00
1E
37
63
7F
FE
C0
E6
7C
ENDCHAR

STARTCHAR iacute
ENCODING 237
SWIDTH 278 0
DWIDTH 4 0
BBX 5 11 1 0
BITMAP
18
30
00
60
60
60
60
C0
C0
C0
C0
ENDCHAR

STARTCHAR icircumflex
ENCODING 238
SWIDTH 278 0
DWIDTH 4 0
BBX 5 11 1 0
BITMAP
70
D8
00
60
60
60
60
C0
C0
C0
C0
ENDCHAR

STARTCHAR dcaron
ENCODING 239
SWIDTH 740 0
DWIDTH 9 0
BBX 12 11 1 0
BITMAP
01B0
01B0
01A0
3B40
7F00
E700
C300
C600
C600
FE00
7600
ENDCHAR

STARTCHAR dcroat
ENCODING 240
SWIDTH 611 0
DWIDTH 9 0
BBX 10 11 1 0
BITMAP
0180
07C0
07C0
3B00
7F00
E700
C300
C600
C600
FE00
7600
ENDCHAR

STARTCHAR nacute
ENCODING 241
SWIDTH 611 0
DWIDTH 9 0
BBX 8 11 1 0
BITMAP
06
0C
00
6E
7F
73
63
63
C6
C6
C6
ENDCHAR

STARTCHAR ncaron
ENCODING 242
SWIDTH 611 0
DWIDTH 9 0
BBX 8 11 1 0
BITMAP
1B
0E
00
6E
7F
73
63
63
C6
C6
C6
ENDCHAR

STARTCHAR oacute
ENCODING 243
SWIDTH 611 0
DWIDTH 9 0
BBX 8 11 1 0
BITMAP
06
0C
00
1E
7F
63
C3
C3
C6
FE
78
ENDCHAR

STARTCHAR ocircumflex
ENCODING 244
SWIDTH 611 0
DWIDTH 9 0
BBX 8 11 1 0
BITMAP
0E
1B
00
1E
7F
63
C3
C3
C6
FE
78
ENDCHAR

STARTCHAR ohungarumlaut
ENCODING 245
SWIDTH 611 0
DWIDTH 9 0
BBX 8 11 1 0
BITMAP
1B
36
00
1E
7F
63
C3
C3
C6
FE
78
ENDCHAR

STARTCHAR odieresis
ENCODING 246
SWIDTH 611 0
DWIDTH 9 0
BBX 8 11 1 0
BITMAP
1B
1B
00
1E
7F
63
C3
C3
C6
FE
78
ENDCHAR

STARTCHAR divide
ENCODING 247
SWIDTH 584 0
DWIDTH 9 0
BBX 8 8 1 1
BITMAP
18
18
00
FF
FF
00
18
18
ENDCHAR

STARTCHAR rcaron
ENCODING 248
SWIDTH 389 0
DWIDTH 6 0
BBX 7 11 1 0
BITMAP
36
1C
00
6C
7C
70
60
C0
C0
C0
C0
ENDCHAR

STARTCHAR uring
ENCODING 249
SWIDTH 611 0
DWIDTH 9 0
BBX 8 12 1 0
BITMAP
08
14
08
00
63
63
63
C6
C6
CE
FE
76
ENDCHAR

STARTCHAR uacute
ENCODING 250
SWIDTH 611 0
DWIDTH 9 0
BBX 8 11 1 0
BITMAP
0C
18
00
63
63
63
C6
C6
CE
FE
76
ENDCHAR

STARTCHAR uhungarumlaut
ENCODING 251
SWIDTH 611 0
DWIDTH 9 0
BBX 8 11 1 0
BITMAP
1B
36
00
63
63
63
C6
C6
CE
FE
76
ENDCHAR

STARTCHAR udieresis
ENCODING 252
SWIDTH 611 0
DWIDTH 9 0
BBX 8 11 1 0
BITMAP
36
36
00
63
63
63
C6
C6
CE
FE
76
ENDCHAR

STARTCHAR yacute
ENCODING 253
SWIDTH 556 0
DWIDTH 8 0
BBX 9 14 0 -3
BITMAP
0300
0600
0000
3180
3180
3300
3300
3E00
1C00
1C00
1800
3800
F000
E000
ENDCHAR

STARTCHAR tcommaaccent
ENCODING 254
SWIDTH 333 0
DWIDTH 5 0
BBX 7 15 0 -4
BITMAP
08
18
18
7E
FC
30
70
60
60
78
30
00
30
30
60
ENDCHAR

STARTCHAR dotaccent
ENCODING 255
SWIDTH 333 0
DWIDTH 5 0
BBX 2 2 3 9
BITMAP
C0
C0
ENDCHAR
ENDFONT
